<?xml version="1.0" encoding="UTF-8" standalone="no"?>
<svg
   version="1.1"
   width="1024"
   height="1024"
   id="svg122"
   xmlns="http://www.w3.org/2000/svg"
   xmlns:svg="http://www.w3.org/2000/svg">
  <defs
     id="defs122" />
  <path
     d="m 366,75 c -1.42184,3.737975 -3.10367,7.229424 -4.97656,10.761719 -0.58443,1.109721 -1.16886,2.219443 -1.771,3.362793 -0.30669,0.581347 -0.61339,1.162694 -0.92938,1.761657 C 352.43596,102.07177 346.79824,113.29749 342,125 c -0.3213,0.77344 -0.6426,1.54688 -0.97363,2.34375 C 332.24457,148.68686 325.59939,171.18654 322,194 c -0.14808,0.90669 -0.29616,1.81339 -0.44873,2.74756 C 318.30355,217.43295 318.68628,238.12728 319,259 c 0.66,0 1.32,0 2,0 0.26772,-0.72115 0.53544,-1.4423 0.81128,-2.1853 1.1918,-2.822 2.57994,-5.25775 4.20825,-7.84986 0.60352,-0.96397 1.20705,-1.92795 1.82886,-2.92114 0.97223,-1.53757 0.97223,-1.53757 1.96411,-3.1062 0.67071,-1.06694 1.34143,-2.13388 2.03247,-3.23315 4.74747,-7.53154 9.56928,-15.01258 14.44263,-22.46314 3.69194,-5.64863 7.31236,-11.33828 10.8999,-17.05371 3.95791,-6.30302 8.01019,-12.52764 12.16699,-18.70093 3.38141,-5.04165 6.60582,-10.17158 9.80371,-15.33105 4.83622,-7.7901 9.83952,-15.47141 14.8418,-23.15552 15.117,14.40843 20.36432,44.37029 21.12622,64.302 0.0807,3.83716 0.12037,7.67263 0.12378,11.5105 6.7e-4,0.68558 10e-4,1.37116 0.002,2.07751 -0.0766,49.20205 -22.02767,98.86267 -56.22075,134.14124 -1.93223,1.91964 -1.93223,1.91964 -4.03125,4.96875 1.03205,5.35136 4.00868,9.20675 7.25,13.4375 0.52505,0.69158 1.0501,1.38316 1.59106,2.0957 9.59653,12.41025 20.69813,25.18323 34.15894,33.4668 0.12206,-0.73396 0.24412,-1.46792 0.36987,-2.22412 0.61364,-2.70325 1.44293,-4.73777 2.71216,-7.18994 0.43111,-0.8337 0.86222,-1.6674 1.3064,-2.52637 0.46994,-0.88591 0.93988,-1.77182 1.42407,-2.68457 0.48992,-0.92716 0.97985,-1.85432 1.48462,-2.80957 10.07968,-18.80006 22.12221,-36.59577 35.51538,-53.19043 0.77235,-0.95846 0.77235,-0.95846 1.5603,-1.93628 3.09484,-3.76812 6.37218,-7.2296 9.85352,-10.64111 1.81612,-1.84063 3.50878,-3.74832 5.19555,-5.70777 C 466.93946,309.07353 477.4956,298.91074 489,290 c 1.26639,-1.01827 2.53055,-2.03931 3.79297,-3.0625 1.33975,-1.08345 2.67959,-2.16679 4.01953,-3.25 0.62278,-0.50443 1.24556,-1.00885 1.88721,-1.52856 1.75261,-1.40581 3.51934,-2.78925 5.30029,-4.15894 0.54189,-0.42201 1.08378,-0.84401 1.64209,-1.27881 3.81593,-2.79164 3.81593,-2.79164 6.32056,-2.46606 2.14623,0.78468 3.62254,1.69728 5.43579,3.08081 0.95616,0.72268 0.95616,0.72268 1.93164,1.45996 0.67482,0.5211 1.34965,1.04221 2.04492,1.5791 0.70318,0.53657 1.40637,1.07314 2.13086,1.62598 1.45598,1.11389 2.90941,2.23111 4.36035,3.35156 1.9997,1.54393 4.00736,3.07691 6.0166,4.6084 5.77383,4.43325 11.28866,8.93557 16.32813,14.21093 1.84921,1.8896 3.78209,3.60787 5.78906,5.32813 6.92384,5.97537 13.05912,12.56325 19,19.5 0.89381,1.01886 1.7884,2.03704 2.68359,3.05469 C 597.90666,355.16005 613.32827,380.61259 627,408 c 2.93801,-1.41886 5.1947,-2.87523 7.625,-5.0625 0.6948,-0.6252 1.38961,-1.25039 2.10547,-1.89453 0.74894,-0.67418 1.49789,-1.34836 2.26953,-2.04297 1.20076,-1.02674 1.20076,-1.02674 2.42578,-2.07422 C 650.77711,388.82517 663.01334,376.95999 667,365 c -1.53044,-2.21166 -3.08262,-4.20336 -4.8125,-6.25 -27.7527,-34.08304 -44.73757,-75.31332 -44.5,-119.5 0.002,-0.7439 0.005,-1.4878 0.008,-2.25424 C 617.8139,213.95224 621.33163,190.81462 634,171 c 0.66,0 1.32,0 2,0 1.1189,1.3916 1.1189,1.3916 2.37109,3.39062 0.48147,0.75709 0.96293,1.51417 1.45899,2.29419 0.79567,1.26977 0.79567,1.26977 1.60742,2.56519 5.39003,8.44524 10.92097,16.78385 16.5625,25.0625 0.80415,1.18121 1.60827,2.36244 2.41235,3.5437 1.24138,1.82331 2.48294,3.64649 3.72502,5.46932 3.1053,4.55806 6.20111,9.12247 9.29232,13.6901 0.45154,0.66714 0.90308,1.33427 1.3683,2.02161 1.80571,2.66816 3.6112,5.33646 5.41597,8.00525 4.30968,6.37238 8.62453,12.74 13.00088,19.06689 0.61698,0.89324 1.23396,1.78648 1.86963,2.70679 1.11661,1.61308 2.23712,3.22347 3.36231,4.83057 C 702,268.78003 702,268.78003 702,271 c 0.66,0 1.32,0 2,0 1.28095,-21.54744 2.06618,-43.12074 -0.69238,-64.58008 -0.31213,-2.45537 -0.58782,-4.91321 -0.86231,-7.37304 C 699.86051,177.37539 693.7326,156.36053 686,136 c -0.42587,-1.15049 -0.42587,-1.15049 -0.86035,-2.32422 -4.16406,-11.21057 -9.0844,-22.03016 -14.26465,-32.80078 -0.29569,-0.61729 -0.59138,-1.234579 -0.89603,-1.870575 C 666.65368,92.084903 663.18647,85.380109 659.0708,78.89502 658,77 658,77 658,75 c 20.03087,-1.138118 39.17201,3.425145 58,10 1.22848,0.404766 2.45695,0.809531 3.72266,1.226563 C 769.08266,103.05758 810.13807,140.86288 835,186 c 0.91846,1.63195 0.91846,1.63195 1.85547,3.29688 23.89544,44.83812 25.57186,100.48648 11.27295,148.63818 -8.92627,27.96436 -22.94182,53.97119 -41.78369,76.44385 -1.21677,1.46683 -2.39639,2.96427 -3.57129,4.46484 C 774.2673,455.1437 732.7646,479.94282 691,498 c -1.06589,0.46527 -1.06589,0.46527 -2.15332,0.93994 -8.01915,3.47034 -16.2261,6.24965 -24.53418,8.93506 -0.95793,0.31099 -1.91587,0.62197 -2.90283,0.94238 -1.35328,0.42684 -1.35328,0.42684 -2.73389,0.86231 -0.80526,0.25507 -1.61052,0.51014 -2.44018,0.77295 C 654,511 654,511 650,511 c 0.021,0.56469 0.0419,1.12938 0.0635,1.71118 1.44088,45.73878 -11.05781,90.60509 -30.00147,131.96216 -1.04211,2.28307 -2.0515,4.57854 -3.0581,6.87744 -13.68837,30.65197 -33.41071,58.62589 -54.51563,84.56641 -1.63905,2.02142 -1.63905,2.02142 -3.48828,4.88281 -7.72981,-0.40833 -14.08841,-3.23366 -21.125,-6.3125 -0.6125,-0.26527 -1.22499,-0.53055 -1.85605,-0.80386 C 523.93866,728.6399 512.39468,722.59617 501,716 c -1.3294,-0.75396 -2.65882,-1.50787 -3.98828,-2.26172 C 481.29765,704.69204 466.54213,694.04184 453,682 c -1.37489,-1.18763 -2.74988,-2.37514 -4.125,-3.5625 -1.29383,-1.14339 -2.58531,-2.28945 -3.875,-3.4375 -0.88559,-0.78117 -1.77117,-1.56234 -2.68359,-2.36719 C 436.78785,667.69687 431.74389,662.68268 427,657 c -0.80824,-0.90879 -1.61648,-1.81758 -2.44922,-2.75391 C 390.07268,615.23898 374.04032,563.58939 375,512 c -0.90234,-0.0812 -1.80469,-0.16242 -2.73438,-0.24609 -5.72135,-0.82492 -11.08431,-2.90387 -16.51562,-4.81641 -1.72839,-0.60509 -1.72839,-0.60509 -3.4917,-1.22241 C 336.65483,500.18421 321.64587,493.70941 307,486 c -0.76925,-0.40058 -1.5385,-0.80115 -2.33106,-1.21387 C 283.99252,473.96428 264.45587,460.91557 247.26172,445.07812 245.20974,443.19271 243.11848,441.3723 241,439.5625 223.45134,424.24731 208.15019,405.45112 197,385 c -0.4718,-0.85755 -0.94359,-1.7151 -1.42969,-2.59863 C 188.75795,369.93942 182.5491,357.46908 178,344 c -0.26506,-0.78407 -0.53013,-1.56814 -0.80322,-2.37598 -3.1063,-9.37319 -5.61431,-18.80707 -7.50928,-28.49902 -0.15944,-0.80671 -0.31888,-1.61342 -0.48315,-2.44458 C 160.5816,263.48598 170.60545,212.06125 197,172 c 0.69198,-1.0526 0.69198,-1.0526 1.39795,-2.12647 11.65726,-17.5155 25.35756,-33.54483 41.9458,-46.56787 1.17185,-0.9238 2.33798,-1.85487 3.5,-2.79101 C 254.6351,111.82697 265.80275,104.56007 278,98 c 1.03423,-0.562434 1.03423,-0.562434 2.08935,-1.13623 C 306.23743,82.76538 336.20451,73.993144 366,75 Z"
     fill="#E8522F"
     id="path2" />
  <path
     d="m 366,75 c -1.42184,3.737975 -3.10367,7.229424 -4.97656,10.761719 -0.58443,1.109721 -1.16886,2.219443 -1.771,3.362793 -0.30669,0.581347 -0.61339,1.162694 -0.92938,1.761657 C 352.43596,102.07177 346.79824,113.29749 342,125 c -0.3213,0.77344 -0.6426,1.54688 -0.97363,2.34375 C 332.24457,148.68686 325.59939,171.18654 322,194 c -0.14808,0.90669 -0.29616,1.81339 -0.44873,2.74756 C 318.30355,217.43295 318.68628,238.12728 319,259 c 0.66,0 1.32,0 2,0 0.26772,-0.72115 0.53544,-1.4423 0.81128,-2.1853 1.1918,-2.822 2.57994,-5.25775 4.20825,-7.84986 0.60352,-0.96397 1.20705,-1.92795 1.82886,-2.92114 0.97223,-1.53757 0.97223,-1.53757 1.96411,-3.1062 0.67071,-1.06694 1.34143,-2.13388 2.03247,-3.23315 4.74747,-7.53154 9.56928,-15.01258 14.44263,-22.46314 3.69194,-5.64863 7.31236,-11.33828 10.8999,-17.05371 3.95791,-6.30302 8.01019,-12.52764 12.16699,-18.70093 3.38141,-5.04165 6.60582,-10.17158 9.80371,-15.33105 4.83622,-7.7901 9.83952,-15.47141 14.8418,-23.15552 15.117,14.40843 20.36432,44.37029 21.12622,64.302 0.0807,3.83716 0.12037,7.67263 0.12378,11.5105 6.7e-4,0.68558 10e-4,1.37116 0.002,2.07751 -0.0766,49.20205 -22.02767,98.86267 -56.22075,134.14124 -1.93223,1.91964 -1.93223,1.91964 -4.03125,4.96875 1.03205,5.35136 4.00868,9.20675 7.25,13.4375 0.52505,0.69158 1.0501,1.38316 1.59106,2.0957 9.72655,12.5784 20.78659,24.74818 34.15894,33.4668 -0.63615,1.34965 -0.63615,1.34965 -1.28516,2.72656 C 387.97125,430.71379 382.66576,450.45935 379,471 c -0.18691,1.01997 -0.37383,2.03994 -0.56641,3.09082 -1.39753,8.20301 -1.79976,16.22082 -1.80859,24.53418 -0.0245,1.25168 -0.049,2.50336 -0.0742,3.79297 -0.004,1.19496 -0.008,2.38992 -0.0117,3.62109 -0.008,1.0746 -0.0164,2.14919 -0.0249,3.25635 0.23066,2.84687 0.23066,2.84687 2.51465,4.57715 0.65049,0.37205 1.30098,0.74411 1.97119,1.12744 -0.66,0.33 -1.32,0.66 -2,1 0.0348,1.19238 0.0696,2.38477 0.10547,3.61328 0.0281,1.56639 0.0554,3.1328 0.082,4.69922 0.0251,0.78568 0.0503,1.57137 0.0762,2.38086 0.0145,1.13599 0.0145,1.13599 0.0293,2.29492 0.0157,0.6965 0.0314,1.39299 0.0476,2.1106 -0.4382,2.44602 -1.47495,3.32814 -3.34058,4.90112 -0.71413,-8.02124 -1.14526,-15.94642 -1,-24 -0.90234,-0.0812 -1.80469,-0.16242 -2.73438,-0.24609 -5.72135,-0.82492 -11.08431,-2.90387 -16.51562,-4.81641 -1.72839,-0.60509 -1.72839,-0.60509 -3.4917,-1.22241 C 336.65483,500.18421 321.64587,493.70941 307,486 c -0.76925,-0.40058 -1.5385,-0.80115 -2.33106,-1.21387 C 283.99252,473.96428 264.45587,460.91557 247.26172,445.07812 245.20974,443.19271 243.11848,441.3723 241,439.5625 223.45134,424.24731 208.15019,405.45112 197,385 c -0.4718,-0.85755 -0.94359,-1.7151 -1.42969,-2.59863 C 188.75795,369.93942 182.5491,357.46908 178,344 c -0.26506,-0.78407 -0.53013,-1.56814 -0.80322,-2.37598 -3.1063,-9.37319 -5.61431,-18.80707 -7.50928,-28.49902 -0.15944,-0.80671 -0.31888,-1.61342 -0.48315,-2.44458 C 160.5816,263.48598 170.60545,212.06125 197,172 c 0.69198,-1.0526 0.69198,-1.0526 1.39795,-2.12647 11.65726,-17.5155 25.35756,-33.54483 41.9458,-46.56787 1.17185,-0.9238 2.33798,-1.85487 3.5,-2.79101 C 254.6351,111.82697 265.80275,104.56007 278,98 c 1.03423,-0.562434 1.03423,-0.562434 2.08935,-1.13623 C 306.23743,82.76538 336.20451,73.993144 366,75 Z"
     fill="#E8522F"
     id="path3" />
  <path
     d="m 406,656 c 0.66,0 1.32,0 2,0 1.55859,1.91406 1.55859,1.91406 3.4375,4.625 0.72574,1.01449 1.45148,2.02898 2.19922,3.07422 0.38849,0.54318 0.77698,1.08636 1.17724,1.64599 C 430.5647,687.32103 450.1785,705.55928 473,720 c 0.74766,0.47437 1.49531,0.94875 2.26562,1.4375 2.55164,1.57024 5.1369,3.06912 7.73438,4.5625 0.63776,0.37463 1.27553,0.74927 1.93262,1.13525 18.03656,10.54792 37.12543,18.57777 56.6853,25.85474 10.07293,3.75272 18.91521,7.26977 27.38208,14.01001 1.08845,0.80444 2.17976,1.60502 3.27344,2.40234 C 602.86883,791.94516 621.66741,825.92171 628,863 c 0.81855,6.05896 1.11804,12.01551 1.0625,18.125 -0.009,1.30195 -0.018,2.60391 -0.0273,3.94531 -0.0174,1.4502 -0.0174,1.4502 -0.0352,2.92969 -28.6506,13.55647 -59.1688,24.02592 -91.22266,24.20312 -1.2819,0.0106 -1.2819,0.0106 -2.5897,0.0214 C 498.95665,912.45563 498.95665,912.45563 481,909 c -0.99677,-0.18804 -1.99354,-0.37608 -3.02051,-0.56982 C 453.64708,903.67935 429.23013,896.04892 407,885 c -0.94118,-0.46245 -1.88235,-0.9249 -2.85205,-1.40137 C 384.95199,874.10229 366.80542,863.31564 350,850 c -0.90621,-0.71414 -1.81242,-1.42828 -2.74609,-2.16406 -6.02427,-4.83651 -11.74341,-9.94695 -17.39844,-15.20313 -2.51851,-2.32212 -5.07855,-4.5782 -7.66797,-6.82031 -3.36448,-2.97928 -6.33442,-6.10721 -9.23047,-9.53906 -1.53454,-1.78265 -3.09274,-3.51425 -4.69531,-5.23438 -0.48614,-0.52239 -0.97228,-1.04478 -1.47315,-1.58301 -0.95755,-1.02565 -1.91799,-2.04861 -2.88183,-3.06835 C 300.88019,803.13337 298.20202,799.86827 296,796 c 0.33,-0.99 0.66,-1.98 1,-3 2.4728,-1.14386 4.8881,-2.12186 7.4375,-3.0625 C 324.99963,781.88537 342.57555,769.58437 359,755 c 0.65355,-0.58008 1.30711,-1.16016 1.98047,-1.75781 C 387.99968,727.69909 399.99305,691.57305 406,656 Z"
     fill="#F0643A"
     id="path4" />
  <path
     d="m 398,408 c 0.99129,0.86367 1.98258,1.72734 3.00391,2.61719 3.87099,3.31633 7.87264,6.42891 11.93359,9.50781 0.73509,0.55986 1.47018,1.11971 2.22754,1.69653 5.67806,4.31803 11.38431,8.59812 17.09668,12.87061 4.60925,3.45067 9.18903,6.93602 13.74414,10.45801 2.98246,2.30558 5.97517,4.5962 8.98242,6.86938 9.58281,7.2556 18.92193,14.75515 28.15772,22.44678 2.49101,2.06064 5.01818,4.07532 7.5415,6.09619 4.92473,4.01636 9.57115,8.30015 14.19214,12.65845 2.92331,2.75596 5.87878,5.4482 8.92505,8.06811 4.91727,4.27892 9.52709,8.8513 14.13281,13.46094 0.88518,0.88526 1.77037,1.77053 2.68237,2.68262 5.87983,5.93152 11.26032,11.9698 16.38013,18.56738 1.09515,1.23721 2.19923,2.46658 3.3125,3.6875 27.68011,31.39642 55.61405,76.963 62.23437,118.76562 -0.83952,5.44489 -3.50573,9.60434 -6.29687,14.29688 -0.58983,1.01353 -1.17965,2.02705 -1.78735,3.07129 -1.80026,3.0724 -3.6259,6.12802 -5.46265,9.17871 -0.5174,0.86367 -1.03479,1.72734 -1.56787,2.61719 -9.88889,16.39309 -21.3101,31.63382 -33.2251,46.59765 -1.77294,2.23737 -3.50951,4.49047 -5.20703,6.78516 -7.72981,-0.40833 -14.08841,-3.23366 -21.125,-6.3125 -0.6125,-0.26527 -1.22499,-0.53055 -1.85605,-0.80386 C 523.93866,728.6399 512.39468,722.59617 501,716 c -1.3294,-0.75396 -2.65882,-1.50787 -3.98828,-2.26172 C 481.29764,704.69204 466.54213,694.04184 453,682 c -1.37489,-1.18763 -2.74988,-2.37514 -4.125,-3.5625 -1.29383,-1.14339 -2.58531,-2.28945 -3.875,-3.4375 -0.88559,-0.78117 -1.77117,-1.56234 -2.68359,-2.36719 C 436.78785,667.69687 431.74389,662.68268 427,657 c -1.21236,-1.36318 -1.21236,-1.36318 -2.44922,-2.75391 -21.33221,-24.13439 -35.09562,-52.71 -42.92578,-83.74609 -0.17566,-0.69268 -0.35133,-1.38536 -0.53232,-2.09903 -2.6741,-10.64198 -4.28185,-20.80299 -4.21768,-31.77597 -0.004,-0.68449 -0.008,-1.36898 -0.0117,-2.07422 0.007,-3.36053 0.25211,-6.31882 1.13672,-9.55078 0.0657,-1.54041 0.0857,-3.08337 0.0625,-4.625 -0.009,-0.77602 -0.0181,-1.55203 -0.0273,-2.35156 -0.0116,-0.66774 -0.0232,-1.33547 -0.0352,-2.02344 0,-0.66 0,-1.32 0,-2 -0.66,-0.66 -1.32,-1.32 -2,-2 -4.46177,-34.03387 5.95777,-73.99056 22,-104 z"
     fill="#C83E20"
     id="path5"
     style="fill:#C83E20;fill-opacity:1" />
  <path
     d="m 556,759 c 31.83284,17.08246 56.33271,47.46919 67,82 3.65637,13.26076 6.18782,26.34013 6.0625,40.125 l -0.0273,3.94531 L 629,888 c -28.6506,13.55647 -59.1688,24.02592 -91.22266,24.20312 l -2.5897,0.0214 C 498.95665,912.45563 498.95665,912.45563 481,909 l -3.02051,-0.56982 C 453.64708,903.67935 429.23013,896.04892 407,885 l -2.85205,-1.40137 C 384.95199,874.10229 366.80542,863.31564 350,850 l -2.74609,-2.16406 c -5.08287,-4.08072 -9.99515,-8.32679 -14.81641,-12.71094 l -1.55469,-1.40772 C 328.55853,831.57703 326.76443,829.64664 325,827 c 4.37078,0.28505 7.45434,1.10128 11.3125,3.1875 11.61298,6.09814 24.82729,9.58811 37.6875,11.8125 l 3.56641,0.62109 c 35.5883,5.47222 68.39163,-1.80364 100.23723,-17.6733 3.73059,-1.66498 6.64457,-3.69119 11.00495,-5.83842 C 504.02207,811.24267 517.46291,800.58583 530,789 l 1.70215,-1.56494 C 540.95926,778.82676 548.56553,769.2001 556,759 Z"
     fill="#C83E20"
     id="path6"
     style="fill:#C83E20;fill-opacity:1" />
  <path
     d="m 379,515 c 6.83546,0.31156 12.58373,3.15808 18.75,5.9375 1.10892,0.49581 2.21783,0.99161 3.36035,1.50244 C 434.42358,537.50336 464.79822,557.59495 492,582 c 0.72196,0.63986 1.44391,1.27972 2.18774,1.93897 C 507.35605,595.67051 520.2418,607.99171 531,622 c 0.89593,1.08779 1.79597,2.17219 2.69922,3.25391 C 553.05663,648.58116 568.2279,675.12676 580,703 c 0.5787,1.35187 1.15807,2.70346 1.73828,4.05469 0.41637,0.97195 0.83274,1.9439 1.26172,2.94531 -14.48759,18.68362 -14.48759,18.68362 -20.54688,26.15234 -1.22644,1.55943 -2.35263,3.19693 -3.45312,4.84766 -7.72981,-0.40833 -14.08841,-3.23366 -21.125,-6.3125 -0.6125,-0.26527 -1.22499,-0.53055 -1.85605,-0.80386 C 523.93866,728.6399 512.39468,722.59617 501,716 c -1.3294,-0.75396 -2.65882,-1.50787 -3.98828,-2.26172 C 481.29765,704.69204 466.54213,694.04184 453,682 c -1.37489,-1.18763 -2.74988,-2.37514 -4.125,-3.5625 -1.29383,-1.14339 -2.58531,-2.28945 -3.875,-3.4375 -0.88559,-0.78117 -1.77117,-1.56234 -2.68359,-2.36719 C 436.78785,667.69687 431.74389,662.68268 427,657 c -1.21236,-1.36318 -1.21236,-1.36318 -2.44922,-2.75391 -21.33221,-24.13439 -35.09562,-52.71 -42.92578,-83.74609 -0.17566,-0.69268 -0.35133,-1.38536 -0.53232,-2.09903 -2.6741,-10.64198 -4.28185,-20.80299 -4.21768,-31.77597 -0.004,-0.68449 -0.008,-1.36898 -0.0117,-2.07422 0.007,-3.36176 0.26035,-6.31656 1.13672,-9.55078 0.042,-1.56194 0.0413,-3.12555 0,-4.6875 -0.0376,-1.43701 -0.0466,-2.87576 0,-4.3125 0.33,-0.33 0.66,-0.66 1,-1 z"
     fill="#E8522F"
     id="path7" />
  <path
     d="m 394,143 c 15.117,14.40843 20.36432,44.37029 21.12622,64.302 0.0807,3.83716 0.12037,7.67263 0.12378,11.5105 6.7e-4,0.68558 10e-4,1.37116 0.002,2.07751 C 415.17363,271.25199 392.63942,314.98503 361,353 c -0.88752,1.10988 -0.88752,1.10988 -1.79297,2.24219 -1.33572,1.64244 -2.76255,3.21015 -4.20703,4.75781 -0.99,0 -1.98,0 -3,0 -9.56942,-17.5657 -17.89625,-34.87906 -24,-54 -0.42952,-1.28521 -0.85918,-2.57038 -1.28906,-3.85547 -2.24663,-7.1772 -3.62348,-14.50424 -4.96094,-21.89453 -0.17571,-0.95922 -0.35143,-1.91845 -0.53247,-2.90674 -1.79725,-10.51834 -2.5661,-17.84573 3.59497,-26.90576 0.74987,-1.16197 0.74987,-1.16197 1.51489,-2.34741 1.5385,-2.37645 3.10482,-4.7329 4.67261,-7.09009 0.87539,-1.35224 1.74793,-2.70632 2.61719,-4.0625 1.75641,-2.73745 3.52401,-5.46712 5.30078,-8.19141 3.72827,-5.72675 7.40288,-11.48771 11.08203,-17.24609 4.56256,-7.13865 9.13562,-14.26974 13.75,-21.375 4.25922,-6.5599 8.43893,-13.16755 12.60352,-19.78784 C 382.13807,161.16163 388.0657,152.07914 394,143 Z"
     fill="#0E1E3A"
     id="path8" />
  <path
     d="m 556,759 c 31.83284,17.08246 56.33271,47.46919 67,82 3.65637,13.26076 6.18782,26.34013 6.0625,40.125 l -0.0273,3.94531 L 629,888 c -44.2111,-3.92988 -84.869,-23.34146 -120,-50 l -3.01172,-2.24219 c -6.05429,-4.51223 -12.95738,-11.17244 -18.89572,-15.83614 3.15755,-1.93506 3.52914,-2.06702 7.09494,-3.98417 C 518.96198,801.91034 539.33014,781.87106 556,759 Z"
     fill="#0E1E3A"
     id="path9" />
  <path
     d="m 634,171 c 0.66,0 1.32,0 2,0 1.1189,1.3916 1.1189,1.3916 2.37109,3.39062 0.48147,0.75709 0.96293,1.51417 1.45899,2.29419 0.79567,1.26977 0.79567,1.26977 1.60742,2.56519 5.39003,8.44524 10.92097,16.78385 16.5625,25.0625 0.80415,1.18121 1.60827,2.36244 2.41235,3.5437 1.24138,1.82331 2.48294,3.64649 3.72503,5.46932 3.10529,4.55806 6.2011,9.12247 9.29231,13.6901 0.45154,0.66713 0.90308,1.33426 1.3683,2.02161 1.80571,2.66816 3.6112,5.33646 5.41597,8.00525 4.30968,6.37238 8.62453,12.74 13.00088,19.06689 0.92547,1.33986 0.92547,1.33986 1.86963,2.70679 1.11661,1.61308 2.23712,3.22347 3.36231,4.83057 C 702,268.78003 702,268.78003 702,271 c 0.66,0.33 1.32,0.66 2,1 -6.23498,33.89487 -16.52298,63.85938 -35,93 -3.81394,-1.27131 -5.24823,-3.522 -7.5625,-6.625 -0.65428,-0.86637 -0.65428,-0.86637 -1.32178,-1.75024 -25.91023,-34.70337 -42.66359,-73.5988 -42.42822,-117.37476 0.003,-0.7439 0.005,-1.4878 0.008,-2.25424 C 617.8139,213.95224 621.33163,190.81462 634,171 Z"
     fill="#F0643A"
     id="path10"
     style="fill:#F0643A;fill-opacity:0.510563" />
</svg>
